# xmcd
#
# Track frame offsets:
#	150
#	9236
#	17151
#	25074
#	35659
#	45816
#	54424
#	63030
#	74166
#	86027
#
# Disc length: 1294 seconds
#
# Revision: 0
# Processed by: cddbd v1.4PL0 Copyright (c) Steve Scherf et al.
# Submitted via: dBpowerAMP V4.0
#
DISCID=75050c0a
DTITLE=Roger Miller - Timeless Hits
DYEAR=1900
DGENRE=Country
TTITLE0=ChugA Lug
TTITLE1=Do-Wacka-Do
TTITLE2=Dang Me
TTITLE3=When Two Worlds Collide
TTITLE4=Engine, Engine #9
TTITLE5=England Swings
TTITLE6=You Can't Rolerskate In A Buffalo Herd
TTITLE7=Husbands and Wives
TTITLE8=Walkin' In the Sunshine
TTITLE9=King Of The Road
EXTD=Timeless Hits
EXTT0=
EXTT1=
EXTT2=
EXTT3=
EXTT4=
EXTT5=
EXTT6=
EXTT7=
EXTT8=
EXTT9=
PLAYORDER=
